<svg version="1.1" xmlns="http://www.w3.org/2000/svg" xmlns:xlink="http://www.w3.org/1999/xlink" x="0px"
	 y="0px" viewBox="0 0 21 6" style="enable-background:new 0 0 21 6;" xml:space="preserve">
	
	<path style="fill:#6A3906;" d="M18.659,6H1.771C1.04,6,0.445,5.406,0.445,4.675c-0.004-0.105-0.002-0.219,0-0.335
		c0.008-0.384,0.016-0.78-0.233-1.03L0.067,3.166C0.022,3.12,0,3.068,0,3.01c0-0.107,0.088-0.193,0.153-0.256
		c0.018-0.017,0.041-0.04,0.048-0.05c0.247-0.25,0.246-0.584,0.245-0.938V1.694c-0.01-0.06-0.01-0.141-0.01-0.213
		c0-0.706,0.418-1.47,1.335-1.481h16.889c0.96,0,1.741,0.59,1.741,1.316c0,0.086-0.002,0.17-0.004,0.253
		c-0.013,0.532-0.024,0.952,0.498,1.25l0.01,0.007C20.928,2.844,21,2.899,21,3s-0.072,0.156-0.095,0.174L20.71,3.32
		c-0.335,0.252-0.323,0.629-0.312,1.028c0.004,0.112,0.007,0.223,0.002,0.331C20.4,5.406,19.619,6,18.659,6z M1.771,0.194
		C0.987,0.203,0.629,0.868,0.629,1.481c0,0.063,0,0.136,0.009,0.198l0.001,0.086c0.001,0.378,0.002,0.769-0.29,1.061
		C0.344,2.839,0.318,2.864,0.288,2.893C0.26,2.92,0.194,2.984,0.194,3.01l0.155,0.164c0.308,0.309,0.298,0.766,0.29,1.171
		c-0.002,0.112-0.005,0.222,0,0.327c0,0.628,0.508,1.136,1.132,1.136h16.888c0.853,0,1.548-0.508,1.548-1.132
		c0.004-0.108,0.001-0.215-0.003-0.321c-0.011-0.411-0.025-0.876,0.389-1.188l0.195-0.146c0.016-0.012,0.019-0.018,0.019-0.018
		c0-0.002-0.003-0.008-0.015-0.018c-0.615-0.356-0.603-0.872-0.59-1.42c0.002-0.081,0.005-0.164,0.005-0.248
		c0-0.619-0.695-1.122-1.548-1.122H1.771z"/>

	<path style="fill:#6A3906;" d="M18.659,5.647H1.771c-0.536,0-0.972-0.438-0.972-0.977c-0.004-0.1-0.002-0.195,0-0.297
		c0.009-0.45,0.019-0.957-0.336-1.313L0.41,3.005C0.402,2.997,0.398,2.985,0.399,2.973s0.008-0.022,0.018-0.029
		c0.026-0.017,0.072-0.046,0.081-0.057C0.5,2.882,0.501,2.882,0.505,2.878C0.801,2.6,0.8,2.158,0.799,1.767
		c0-0.01-0.001-0.099-0.002-0.113C0.789,1.606,0.789,1.553,0.789,1.505V1.49c0-0.417,0.207-1.126,0.984-1.136h16.886
		c0.752,0,1.388,0.44,1.388,0.962l-0.003,0.186c-0.013,0.53-0.025,1.078,0.454,1.474c0.01,0.008,0.015,0.02,0.015,0.032
		s-0.006,0.023-0.016,0.031c-0.477,0.361-0.464,0.889-0.453,1.313c0.004,0.109,0.007,0.213,0.003,0.319
		C20.047,5.199,19.411,5.647,18.659,5.647z M0.501,2.985l0.019,0.02c0.379,0.379,0.368,0.927,0.359,1.367
		c-0.002,0.104-0.004,0.198,0,0.297c0,0.496,0.4,0.898,0.892,0.898h16.888c0.709,0,1.308-0.412,1.308-0.899
		c0.004-0.104,0.001-0.207-0.003-0.312c-0.011-0.434-0.023-0.967,0.445-1.351c-0.471-0.417-0.458-0.969-0.445-1.504l0.003-0.185
		c0-0.478-0.599-0.881-1.308-0.881H1.773C1.06,0.442,0.869,1.102,0.869,1.49v0.016c0,0.047,0,0.095,0.006,0.137
		c0.002,0.016,0.003,0.124,0.003,0.125C0.88,2.172,0.881,2.631,0.563,2.933C0.553,2.948,0.534,2.963,0.501,2.985z"/>
</svg>
